<svg xmlns="http://www.w3.org/2000/svg" viewBox="0 0 17.28 17.28" fill="white">

  <path d="M11.07,10.08a.44.44,0,0,0,.64.07c.12-.08,1-.51,1-.51a2.07,2.07,0,0,1-1,.2A.76.76,0,0,0,11.07,10.08Z"/>

  <path d="M8.2,7.59a1.29,1.29,0,0,1-.08-.26s0,.12.06.29Z"/>

  <path d="M8.55,7.24a1.78,1.78,0,0,1-.23-.55s.08.34.14.65Z"/>

  <path d="M9.05,6.75l.28-.28a.57.57,0,0,0-.11-.16,2.09,2.09,0,0,1-.46-.88L9,6.5A.68.68,0,0,0,9.05,6.75Z"/>

  <path d="M10.22,5.2l0,0a.61.61,0,0,0-.05.12.4.4,0,0,0,.32,0l.13-.12,0-.07.48-.74a1.65,1.65,0,0,1-.61.53l-.09.06a6.78,6.78,0,0,0,.85-1.61Z"/>

  <path d="M9.86,5.78q-.07.13-.15.3l.34-.34,0-.07h0l.31-.3a.66.66,0,0,0-.24.11l0-.07-.09,0A.7.7,0,0,0,10.19,5a15.68,15.68,0,0,0,1-2.65L10.19,5a0,0,0,0,1,0,0l.55-2.18a4.84,4.84,0,0,0-.56,2.1s0-.07,0-.1A1.89,1.89,0,0,1,10,3.87s-.12.85-.15,1a.39.39,0,0,0,.23.51l0,0h0l-.14.28a.74.74,0,0,0-.17-.41A1.79,1.79,0,0,1,9.4,4.4s.13.84.14,1A.39.39,0,0,0,9.86,5.78Z"/>

  <path d="M9.48,6.32l.19-.19a.91.91,0,0,0-.2-.39A1.89,1.89,0,0,1,9,4.86s.19.92.21,1.07A.44.44,0,0,0,9.48,6.32Z"/>

  <path d="M8.94,6.86a2,2,0,0,1-.39-.8s.15.71.2,1Z"/>

  <path d="M10.41,11.26a.44.44,0,0,0,.64.07c.13-.08,1-.51,1-.51a2,2,0,0,1-1,.2A.74.74,0,0,0,10.41,11.26Z"/>

  <path d="M12,8.67a.6.6,0,0,0-.06.11.36.36,0,0,0,.51-.12C12.5,8.56,13,8,13,8a1.64,1.64,0,0,1-.69.43.31.31,0,0,0-.1.05A7.08,7.08,0,0,0,13.33,7L12,8.69Z"/>

  <path d="M10.75,10.64c.32.3.52.15.64.07l1-.51a1.94,1.94,0,0,1-1,.2A.8.8,0,0,0,10.75,10.64Z"/>

  <path d="M5.48,10.31A2.28,2.28,0,0,1,4.4,10l.86.57Z"/>

  <path d="M8.64,0a8.64,8.64,0,1,0,8.64,8.64A8.64,8.64,0,0,0,8.64,0ZM1.3,8.64a7.35,7.35,0,0,1,1.94-5,22.72,22.72,0,0,0,1.23,2.7v.1a.16.16,0,0,1,0-.07l-.09,0L3,4.49A7.91,7.91,0,0,0,4.16,6.36L4.05,6.3a1.94,1.94,0,0,1-.77-.61l.62.87a.43.43,0,0,0,.53.23l.16.26a.94.94,0,0,0-.52-.19,2.13,2.13,0,0,1-1-.33l1,.66a.47.47,0,0,0,.66,0c.1.17.2.35.29.53a1,1,0,0,0-.65-.28,2.38,2.38,0,0,1-1.14-.37s.95.63,1.09.74a.53.53,0,0,0,.75,0l.25.51a1.06,1.06,0,0,0-.65-.29A2.26,2.26,0,0,1,3.48,7.7l1.09.73a.52.52,0,0,0,.74,0c.08.18.17.38.25.6a1,1,0,0,0-.64-.27,2.51,2.51,0,0,1-1.14-.36s1,.62,1.09.73a.53.53,0,0,0,.74,0l.2.58a1.05,1.05,0,0,0-.56-.2,2.36,2.36,0,0,1-1.14-.36l1.09.73a.51.51,0,0,0,.57.1L6,9.78c0-.11-.07-.23-.11-.34a.52.52,0,0,0,.43-.55c0-.17.19-1.3.19-1.3A2.4,2.4,0,0,1,6,8.68a1.08,1.08,0,0,0-.22.49l-.18-.48A.5.5,0,0,0,6,8.15c0-.18.19-1.3.19-1.3a2.45,2.45,0,0,1-.49,1.09,1,1,0,0,0-.22.5c-.07-.15-.13-.29-.2-.43a.49.49,0,0,0,.39-.53c0-.17.19-1.3.19-1.3a2.35,2.35,0,0,1-.5,1.09,1.1,1.1,0,0,0-.21.47C5.11,7.6,5,7.46,5,7.33a.44.44,0,0,0,.32-.5c0-.16.11-1.18.11-1.18a2.27,2.27,0,0,1-.39,1,.92.92,0,0,0-.17.44l-.17-.29a.45.45,0,0,0,.18-.59c0-.15-.24-1.15-.24-1.15a2.06,2.06,0,0,1-.08,1.07.29.29,0,0,0,0,.09,5.77,5.77,0,0,0-.8-2.45l.78,2.54s0,0,0,0l-1.2-2.7A7.29,7.29,0,0,1,13.34,3L11.23,5.13h0L10.06,6.3h0L10,6.41l-.33.33-.06.06-.66.66h0l-.11.11-.57.57L7.09,9.27h0l0,0h0l-.44.43h0l-.45.45h0l0,0h0L6,10.36H6l-.06.06h0l-.35.34h0L3,13.34A7.33,7.33,0,0,1,1.3,8.64Zm2.64,5.62L6.4,11.8c.26,1.07.54,2.38.85,4A7.19,7.19,0,0,1,3.94,14.26Zm3.5,1.61c-.32-1.75-.62-3.12-.89-4.22L8.42,9.78A16.31,16.31,0,0,0,8,13.43,14,14,0,0,0,8.22,16Q7.82,15.93,7.44,15.87Zm1.2.11H8.59c.67-1.94,1.14-3.22,1.52-4.11a.45.45,0,0,0,.64.07c.12-.08,1-.51,1-.51a2.07,2.07,0,0,1-1,.2.73.73,0,0,0-.62.23c.16-.39.31-.71.44-1h0s0-.07,0-.11.19-.35.28-.49h0a0,0,0,0,1,0,0,5.68,5.68,0,0,1,.47-.67.42.42,0,0,0,.63.07l1-.51a2.07,2.07,0,0,1-1,.2.82.82,0,0,0-.6.21l.34-.43a.39.39,0,0,0,.53,0l.87-.46a1.85,1.85,0,0,1-.88.18.72.72,0,0,0-.39.08l.05-.06-.08-.06A.65.65,0,0,0,12,8.48,16.09,16.09,0,0,0,13.36,6L12,8.46v0l.88-2.06a5,5,0,0,0-.89,2,.33.33,0,0,0,0-.1,1.86,1.86,0,0,1,0-.9s-.26.82-.31.94a.41.41,0,0,0,.15.55l0,0-.19.24a.79.79,0,0,0-.1-.42,1.86,1.86,0,0,1-.24-.87s0,.86,0,1a.38.38,0,0,0,.23.45l-.23.29a1,1,0,0,0-.13-.39,2,2,0,0,1-.32-.95s0,.95,0,1.1a.41.41,0,0,0,.24.46l-.17.25a.84.84,0,0,0-.13-.33,2,2,0,0,1-.31-1s0,1,0,1.09a.41.41,0,0,0,.23.46l-.15.26a.93.93,0,0,0-.12-.27,2.09,2.09,0,0,1-.31-1s0,1,0,1.1a.4.4,0,0,0,.21.44c0,.1-.09.19-.14.29a.94.94,0,0,0-.12-.3,2,2,0,0,1-.31-1s0,1,0,1.1a.42.42,0,0,0,.25.47c-.05.1-.1.22-.15.34a.85.85,0,0,0-.14-.36,2.09,2.09,0,0,1-.31-.95s0,.95,0,1.1a.42.42,0,0,0,.29.48c-.36.89-.82,2.13-1.44,3.93H8.37a14.15,14.15,0,0,1-.22-2.54,15.74,15.74,0,0,1,.48-3.86L9.81,8.39l.61-.46a1.1,1.1,0,0,1-.35.2l4.19-4.19A7.32,7.32,0,0,1,8.64,16Z"/><path class="a" d="M6.83,8.33a2.45,2.45,0,0,1-.5,1.09.53.53,0,0,1-.06.1l.44-.44C6.77,8.72,6.83,8.33,6.83,8.33Z"/>

</svg>
