<svg xmlns="http://www.w3.org/2000/svg" viewBox="0 0 96.25 35.08" fill="white">

  <path d="M0,9.3H7.76V18h.07L14.74,9.3H24.3l-9.13,9.84L25.78,34.48H16.12l-6.21-9.8L7.76,27v7.44H0Z"/>

  <path d="M26.52,9.3h7.76V34.48H26.52Z"/>

  <path d="M37.56,9.3h7.76V34.48H37.56Z"/>

  <path d="M54.49,15.75H47.44V9.3H69.31v6.45H62.25V34.48H54.49Z"/>

  <path d="M83.48,8.7c7.66,0,12.77,5.5,12.77,13.19S91.14,35.08,83.48,35.08s-12.77-5.5-12.77-13.19S75.83,8.7,83.48,8.7Zm0,20.1c2,0,5-1.3,5-6.91s-3-6.91-5-6.91-5,1.3-5,6.91S81.51,28.8,83.48,28.8Z"/>

  <circle fill="#59c8e2" cx="30.4" cy="3.88" r="3.88"/>

  <circle fill="#59c8e2" cx="41.44" cy="3.88" r="3.88"/>

</svg>
