<svg xmlns="http://www.w3.org/2000/svg" viewBox="0 0 17.28 17.28" fill="white">

  <path d="M3.5,12.29l.55-.55-.84-.45V9l2.15,1.15v.3L7,8.82l-1.24.66L3.63,8.35,5.74,7.22l1.85,1,.55-.56-2-1.08V4.25L8.26,5.41V7.53l3.66-3.65V3.62a.3.3,0,0,0-.06-.18l0,0s-.05-.07-.09-.09h0L8.82,1.74a.38.38,0,0,0-.36,0L5.56,3.29h0s-.06.06-.09.09l0,0a.3.3,0,0,0-.06.18v3L2.66,8h0a.34.34,0,0,0-.09.08s0,0-.05.05a.41.41,0,0,0,0,.19v3.16a.37.37,0,0,0,.2.33Zm5.14-9.8,2.11,1.13L8.64,4.76,6.53,3.62Z"/>

  <path d="M8.64,0a8.64,8.64,0,1,0,8.64,8.64A8.64,8.64,0,0,0,8.64,0ZM2.37,12.43a1.19,1.19,0,0,1-.09-.15,3.72,3.72,0,0,1-.21-.39,2,2,0,0,1-.1-.21c-.06-.13-.11-.25-.16-.38a2,2,0,0,1-.1-.26c0-.12-.08-.24-.11-.36l-.09-.32c0-.11-.05-.22-.07-.33s-.05-.29-.07-.43l0-.25c0-.23,0-.47,0-.71s0-.49,0-.72a3.4,3.4,0,0,1,.07-.46l0-.23a6,6,0,0,1,.15-.61.09.09,0,0,0,0,0,7.35,7.35,0,0,1,5.48-5.1h0c.24-.05.49-.09.74-.12h0a6.66,6.66,0,0,1,.78-.05c.23,0,.47,0,.69,0l.36,0a1.92,1.92,0,0,1,.32.05l.39.08.26.07.41.13.21.08A3.79,3.79,0,0,1,11.7,2l.16.07.43.23.1.06a7.1,7.1,0,0,1,.94.69L3,13.32a5.2,5.2,0,0,1-.38-.44l0,0C2.54,12.71,2.45,12.57,2.37,12.43Zm9.17-5.21,2.11,1.13L11.54,9.48l-1.83-1,.63-.64ZM9,9.19l.14-.14,2,1.08v2.31L9,11.29Zm1,6.66A7.56,7.56,0,0,1,8.64,16H8.21a7.37,7.37,0,0,1-2.69-.69l-.1,0c-.25-.13-.5-.26-.73-.41l0,0A5.46,5.46,0,0,1,4,14.24l1.1-1.1.5.26a.35.35,0,0,0,.36,0l2.72-1.46,2.72,1.46a.35.35,0,0,0,.36,0l2.9-1.56a.37.37,0,0,0,.2-.33V8.35a.41.41,0,0,0-.05-.19s0,0,0-.05A.34.34,0,0,0,14.63,8h0l-2.7-1.45V6.28L14.25,4a6.91,6.91,0,0,1,.71,1L15,5a4,4,0,0,1,.24.46.83.83,0,0,1,.07.13,4.07,4.07,0,0,1,.18.44,1.59,1.59,0,0,1,.07.2,4.13,4.13,0,0,1,.14.42l.06.25a2.74,2.74,0,0,1,.09.39c0,.11,0,.22.06.33s0,.23,0,.34,0,.46,0,.7h0s0,.07,0,.11A7.34,7.34,0,0,1,10,15.85Z"/>

</svg>
