<svg xmlns="http://www.w3.org/2000/svg" viewBox="0 0 17.28 17.28" fill="white">

  <path d="M6,5.93c0-.55.7-1.24,1.48-1.81H9.74a7.76,7.76,0,0,1,1,.91l.47-.48a7.28,7.28,0,0,0-.63-.61V2.34H6.67V3.92a3,3,0,0,0-1.31,2v4.5L6,9.75ZM7.35,3H9.93v.42H7.35Z"/>

  <path d="M8.64,0a8.64,8.64,0,1,0,8.64,8.64A8.64,8.64,0,0,0,8.64,0ZM2.37,12.43a1.19,1.19,0,0,1-.09-.15,3.72,3.72,0,0,1-.21-.39,2,2,0,0,1-.1-.21c-.06-.13-.11-.25-.16-.38a2,2,0,0,1-.1-.26c0-.12-.08-.24-.11-.36l-.09-.32c0-.11-.05-.22-.07-.33s-.05-.29-.07-.43l0-.25c0-.23,0-.47,0-.71s0-.49,0-.72a3.4,3.4,0,0,1,.07-.46l0-.23a6,6,0,0,1,.15-.61.09.09,0,0,0,0,0,7.35,7.35,0,0,1,5.48-5.1h0c.24-.05.49-.09.74-.12h0a6.66,6.66,0,0,1,.78-.05c.23,0,.47,0,.69,0l.36,0a1.92,1.92,0,0,1,.32.05l.39.08.26.07.41.13.21.08A3.79,3.79,0,0,1,11.7,2l.16.07.43.23.1.06a7.1,7.1,0,0,1,.94.69L3,13.32a5.2,5.2,0,0,1-.38-.44l0,0C2.54,12.71,2.45,12.57,2.37,12.43ZM6,12.16,11.24,7v7H6Zm4,3.69A7.56,7.56,0,0,1,8.64,16H8.21a7.37,7.37,0,0,1-2.69-.69l-.1,0c-.25-.13-.5-.26-.73-.41l0,0A5.46,5.46,0,0,1,4,14.24l1.4-1.4V14.6h6.56V6.28L14.25,4a6.91,6.91,0,0,1,.71,1L15,5a4,4,0,0,1,.24.46.83.83,0,0,1,.07.13,4.07,4.07,0,0,1,.18.44,1.59,1.59,0,0,1,.07.2,4.13,4.13,0,0,1,.14.42l.06.25a2.74,2.74,0,0,1,.09.39c0,.11,0,.22.06.33s0,.23,0,.34,0,.46,0,.7h0s0,.07,0,.11A7.34,7.34,0,0,1,10,15.85Z"/>

</svg>
