<svg xmlns="http://www.w3.org/2000/svg" viewBox="0 0 37.31 31.81" fill="white">

  <path d="M36.78,16.47a15.12,15.12,0,0,0-10.51,3.46,8.5,8.5,0,0,0-.65-1.32,13.43,13.43,0,0,1-2.17-6.12c0-.18,0-.36-.05-.53A6.32,6.32,0,0,0,16.13,6.7,6.25,6.25,0,0,0,11.07,14c0,.2.09.4.14.59A5.1,5.1,0,0,1,11.35,17a6.9,6.9,0,0,0-8.2.85,3.74,3.74,0,0,1-2.56-.5l-.59.8A4.11,4.11,0,0,1,1.23,20.8,7,7,0,0,0,7.83,30a6.47,6.47,0,0,0,1.23-.11,6.88,6.88,0,0,0,2.58-1,8.86,8.86,0,0,0,1.78,1.56,8.61,8.61,0,0,0,4.76,1.44,8.85,8.85,0,0,0,1.9-.21,8.42,8.42,0,0,0,3.54-1.75c4.21-.9,11.83-3.77,13.59-12.79l.1-.52ZM32.7,17.75a14.47,14.47,0,0,1,2.65-.33l-2.7,2.17Zm-1,.27-.07,2.39-2.41,1.93-.07-3.24A13.31,13.31,0,0,1,31.7,18ZM28.16,19.7l.08,3.43L26.79,24.3a8.18,8.18,0,0,0,0-2.42c-.05-.33-.12-.64-.2-1A13.84,13.84,0,0,1,28.16,19.7ZM6.77,17.14A6.44,6.44,0,0,1,7.83,17a5.94,5.94,0,0,1,3.22,1,5.29,5.29,0,0,1-.25.54,8.83,8.83,0,0,0-.92,2.06,9.17,9.17,0,0,0-6.67-1.37A5.87,5.87,0,0,1,6.77,17.14Zm-3.42,3.1c.26,0,.51-.08.77-.1h.23l.54,0h.28l.47,0,.3,0,.44.07c.1,0,.2,0,.3.06l.42.11.3.09.39.14.31.13.36.16.3.16.34.19.29.18.25.18a8.62,8.62,0,0,0,0,3.08,7.57,7.57,0,0,0,.27,1l-.28,0-.34,0-.39-.09-.33-.08-.38-.12-.31-.11-.37-.15L7.23,25l-.34-.18-.3-.17-.32-.21L6,24.24,5.69,24l-.28-.23-.27-.25-.26-.26L4.64,23l-.24-.29c-.08-.09-.15-.19-.22-.28L4,22.11l-.19-.3-.19-.35c-.06-.11-.11-.21-.16-.32s-.12-.25-.17-.38-.09-.21-.13-.32l0-.13ZM2.19,19a3.3,3.3,0,0,0-.26.39c-.06-.15-.12-.31-.19-.46Zm6.7,9.92A5.95,5.95,0,0,1,2.24,21a9.2,9.2,0,0,0,8.1,5.84A7.93,7.93,0,0,0,11,28,5.73,5.73,0,0,1,8.89,28.87Zm11,1.75a7.69,7.69,0,0,1-8.21-11.53,5.83,5.83,0,0,0,.52-4.76,4.05,4.05,0,0,1-.12-.5A5.25,5.25,0,1,1,22.41,12.1c0,.15,0,.3,0,.45a14.34,14.34,0,0,0,2.32,6.57,7.65,7.65,0,0,1,1,2.9A7.8,7.8,0,0,1,19.86,30.62Zm7.81-3.11a19.68,19.68,0,0,1-2.73,1,8.73,8.73,0,0,0,1.24-2.1l2.07.8C28.05,27.31,27.87,27.42,27.67,27.51Zm1.75-.91-2.63-1,2.09-1.68,3.28.63A15.5,15.5,0,0,1,29.42,26.6ZM33,23.67l-3.07-.59,2.38-1.91,2.28.23A13.22,13.22,0,0,1,33,23.67Zm2.1-3.22-1.68-.17,2.47-2A16.12,16.12,0,0,1,35.07,20.45Z"/>

  <path d="M17.23,17.7c-2.4.27-4.08,2.9-3.74,5.87h0c.31,2.8,2.31,4.91,4.55,4.91a2.69,2.69,0,0,0,.4,0,3.94,3.94,0,0,0,2.93-2,6.12,6.12,0,0,0,.81-3.9C21.85,19.62,19.63,17.43,17.23,17.7ZM20.52,26a3,3,0,0,1-2.19,1.5c-1.84.22-3.58-1.59-3.85-4h0c-.27-2.41,1-4.55,2.86-4.76l.29,0c1.74,0,3.3,1.74,3.56,4A5.11,5.11,0,0,1,20.52,26Z"/>

  <rect x="5.12" y="9.7" width="1" height="3.76" transform="translate(-7.14 13.29) rotate(-71.77)"/>

  <rect x="7.69" y="3.16" width="1" height="5.35" transform="translate(-1.82 6.76) rotate(-40.76)"/>

  <rect x="24.12" y="5.68" width="7.66" height="1" transform="translate(2.18 18.63) rotate(-38.26)"/>

  <rect x="27.25" y="11.89" width="8.77" height="1" transform="translate(-2.19 9.2) rotate(-15.99)"/>

  <rect x="18.91" y="1.89" width="4.19" height="1" transform="translate(11.97 21.5) rotate(-71.21)"/>

  <rect x="13.35" y="0.06" width="1" height="4.17" transform="translate(-0.04 4.05) rotate(-16.6)"/>

</svg>
