<svg xmlns="http://www.w3.org/2000/svg" viewBox="0 0 17.28 17.28" fill="white">

  <path d="M7.15,6.33a.25.25,0,0,0,0-.12V3.67h2.94v2L10.77,5V3.34A.33.33,0,0,0,10.44,3H6.84a.33.33,0,0,0-.33.33V6.15L4.56,11.23l1.15-1.15Z"/>

  <path d="M9,5.06a.58.58,0,1,0,.58.58A.58.58,0,0,0,9,5.06Z"/>

  <circle cx="8.31" cy="6.87" r="0.33"/>

  <path d="M8.64,0a8.64,8.64,0,1,0,8.64,8.64A8.64,8.64,0,0,0,8.64,0ZM2.37,12.43a1.19,1.19,0,0,1-.09-.15,3.72,3.72,0,0,1-.21-.39,2,2,0,0,1-.1-.21c-.06-.13-.11-.25-.16-.38a2,2,0,0,1-.1-.26c0-.12-.08-.24-.11-.36l-.09-.32c0-.11-.05-.22-.07-.33s-.05-.29-.07-.43l0-.25c0-.23,0-.47,0-.71s0-.49,0-.72a3.4,3.4,0,0,1,.07-.46l0-.23a6,6,0,0,1,.15-.61.09.09,0,0,0,0,0,7.35,7.35,0,0,1,5.48-5.1h0c.24-.05.49-.09.74-.12h0a6.66,6.66,0,0,1,.78-.05c.23,0,.47,0,.69,0l.36,0a1.92,1.92,0,0,1,.32.05l.39.08.26.07.41.13.21.08A3.79,3.79,0,0,1,11.7,2l.16.07.43.23.1.06a7.1,7.1,0,0,1,.94.69L3,13.32a5.2,5.2,0,0,1-.38-.44l0,0C2.54,12.71,2.45,12.57,2.37,12.43ZM9.3,10.6A.58.58,0,1,1,8.72,10,.58.58,0,0,1,9.3,10.6ZM5.81,12.39h5.72c.12,0,.17,0,.17,0s0-.12,0-.33L10.52,9H9.17l1.44-1.44,1.62,4.21a1,1,0,0,1,0,.9.78.78,0,0,1-.67.29H5.75a1,1,0,0,1-.44-.1ZM10,11.26a.45.45,0,1,1-.44.45A.45.45,0,0,1,10,11.26Zm-.1-.76a.26.26,0,0,1,.26-.26.25.25,0,0,1,.26.26.26.26,0,0,1-.26.26A.26.26,0,0,1,9.93,10.5ZM10,15.85A7.56,7.56,0,0,1,8.64,16H8.21a7.37,7.37,0,0,1-2.69-.69l-.1,0c-.25-.13-.5-.26-.73-.41l0,0A5.46,5.46,0,0,1,4,14.24l.87-.87a1.55,1.55,0,0,0,.92.29h5.78a1.42,1.42,0,0,0,1.22-.59,1.63,1.63,0,0,0,.1-1.5L11.12,7.08,14.25,4a6.91,6.91,0,0,1,.71,1L15,5a4,4,0,0,1,.24.46.83.83,0,0,1,.07.13,4.07,4.07,0,0,1,.18.44,1.59,1.59,0,0,1,.07.2,4.13,4.13,0,0,1,.14.42l.06.25a2.74,2.74,0,0,1,.09.39c0,.11,0,.22.06.33s0,.23,0,.34,0,.46,0,.7h0s0,.07,0,.11A7.34,7.34,0,0,1,10,15.85Z"/>

</svg>
