<?xml version="1.0" encoding="UTF-8"?>
<svg width="16px" height="15px" viewBox="0 0 16 15" version="1.1" xmlns="http://www.w3.org/2000/svg" xmlns:xlink="http://www.w3.org/1999/xlink">
    <!-- Generator: Sketch 52.6 (67491) - http://www.bohemiancoding.com/sketch -->
    <title>luke-carl-hartman-web-development-for-denali-innovationsArtboard</title>
    <desc>Created with Sketch.</desc>
    <g id="Artboard" stroke="none" stroke-width="1" fill="none" fill-rule="evenodd">
        <g id="shopping-cart-solid" fill="#FFFFFF">
            <path d="M14.67,8.36997222 L15.9831389,2.59219444 C16.0779444,2.17502778 15.7608611,1.77777778 15.3330556,1.77777778 L4.42244444,1.77777778 L4.16783333,0.533055556 C4.10438889,0.222805556 3.83138889,0 3.51469444,0 L0.666666667,0 C0.298472222,0 0,0.298472222 0,0.666666667 L0,1.11111111 C0,1.47930556 0.298472222,1.77777778 0.666666667,1.77777778 L2.60786111,1.77777778 L4.55919444,11.3176389 C4.09236111,11.5861111 3.77777778,12.0895 3.77777778,12.6666667 C3.77777778,13.5257778 4.47422222,14.2222222 5.33333333,14.2222222 C6.19244444,14.2222222 6.88888889,13.5257778 6.88888889,12.6666667 C6.88888889,12.2312778 6.70980556,11.8379167 6.42155556,11.5555556 L12.2450833,11.5555556 C11.9568611,11.8379167 11.7777778,12.2312778 11.7777778,12.6666667 C11.7777778,13.5257778 12.4742222,14.2222222 13.3333333,14.2222222 C14.1924444,14.2222222 14.8888889,13.5257778 14.8888889,12.6666667 C14.8888889,12.0507778 14.5308889,11.5185556 14.0116944,11.2665278 L14.1649444,10.5921944 C14.25975,10.1750278 13.9426667,9.77777778 13.5148611,9.77777778 L6.05880556,9.77777778 L5.877,8.88888889 L14.0199167,8.88888889 C14.3311944,8.88888889 14.6010278,8.6735 14.67,8.36997222 Z" id="Path"></path>
        </g>
    </g>
</svg>