<?xml version="1.0" encoding="UTF-8"?>
<svg width="24px" height="24px" viewBox="0 0 24 24" version="1.1" xmlns="http://www.w3.org/2000/svg" xmlns:xlink="http://www.w3.org/1999/xlink">
    <!-- Generator: Sketch 52.6 (67491) - http://www.bohemiancoding.com/sketch -->
    <title>luke-carl-hartman-web-development-for-denali-innovationsArtboard</title>
    <desc>Created with Sketch.</desc>
    <g id="Artboard" stroke="none" stroke-width="1" fill="none" fill-rule="evenodd">
        <g id="times-solid" transform="translate(0.000000, 0.000000)" fill="#FFFFFF">
            <path d="M16.2456909,11.78 L22.943558,5.08213295 C23.7654807,4.26021023 23.7654807,2.92759773 22.943558,2.10500568 L21.4549943,0.616442045 C20.6330716,-0.205480682 19.3004591,-0.205480682 18.477867,0.616442045 L11.78,7.31430909 L5.08213295,0.616442045 C4.26021023,-0.205480682 2.92759773,-0.205480682 2.10500568,0.616442045 L0.616442045,2.10500568 C-0.205480682,2.92692841 -0.205480682,4.25954091 0.616442045,5.08213295 L7.31430909,11.78 L0.616442045,18.477867 C-0.205480682,19.2997898 -0.205480682,20.6324023 0.616442045,21.4549943 L2.10500568,22.943558 C2.92692841,23.7654807 4.26021023,23.7654807 5.08213295,22.943558 L11.78,16.2456909 L18.477867,22.943558 C19.2997898,23.7654807 20.6330716,23.7654807 21.4549943,22.943558 L22.943558,21.4549943 C23.7654807,20.6330716 23.7654807,19.3004591 22.943558,18.477867 L16.2456909,11.78 Z" id="Path"></path>
        </g>
    </g>
</svg>