<svg xmlns="http://www.w3.org/2000/svg" viewBox="0 0 37.36 24.05" fill="white">

  <path d="M31.85,3.41A12,12,0,0,0,25.36,0h0c-2.14-.43-6,2-9,5l-.31.32c-1.7-1.21-3.36-1.94-4.48-1.71h0l-.08,0-.11,0a9.77,9.77,0,1,0,5.64,18.59A12.09,12.09,0,0,0,31.85,3.41ZM24.84,1a1,1,0,0,1,.75.25c.92.93-.82,4.75-4.55,8.48s-7.55,5.47-8.48,4.54a.69.69,0,0,1-.19-.38.24.24,0,0,1,0-.08h0c-.26-1.39,1.49-4.75,4.77-8C20.17,2.71,23.3,1,24.84,1ZM14,7.77a6.79,6.79,0,0,1-.63-1.09,5.85,5.85,0,0,1,1,.59Zm-2.52-3A.77.77,0,0,1,12,4.63a7.21,7.21,0,0,1,3.37,1.5l-.33.36c-1-.71-2-1.13-2.51-.65s0,1.64.85,2.79l-.29.42C11.58,6.94,11.06,5.25,11.51,4.79ZM7.07,19.52A8.77,8.77,0,0,1,10.37,5c-.16,1.26.76,3.11,2.17,4.94a6.6,6.6,0,0,0-1.17,4h0c0,.06,0,.12,0,.18a.43.43,0,0,1,0,0,12,12,0,0,0,3.33,6.32A12.31,12.31,0,0,0,16,21.62,8.75,8.75,0,0,1,7.07,19.52Zm24.07.29a11.1,11.1,0,0,1-18.39-4.38,2.51,2.51,0,0,0,.55.06c2.2,0,5.68-2.32,8.45-5.08,3-3,5.48-6.87,5-9a11.1,11.1,0,0,1,4.38,18.39Z"/>

  <path d="M14,13.69c1.79,0,5.64-3.74,6.48-4.58S26.1,3.32,24.8,2c-.49-.5-1.4-.25-2.93.79a31.06,31.06,0,0,0-4.16,3.56c-1,1-5.66,5.79-4.36,7.1A.83.83,0,0,0,14,13.69Zm4.45-6.61C21.28,4.21,23.36,2.93,24,2.79c-.15.66-1.43,2.74-4.3,5.61s-5,4.15-5.61,4.3C14.27,12,15.54,10,18.41,7.08Z"/>

  <path d="M37.36,23.67H32.61L33,23a2,2,0,0,1,1.38-1,2.67,2.67,0,0,1,2.19.89Z"/>

  <path d="M5.71,23.71H1.56l.94-.87a2,2,0,0,1,1.69-.67A1.71,1.71,0,0,1,5.31,23Z"/>

  <path d="M.15,22.86a.47.47,0,0,0-.15.35.41.41,0,0,0,0,.19.39.39,0,0,0,.11.17.91.91,0,0,0,.16.11.58.58,0,0,0,.19,0,.58.58,0,0,0,.19,0l.17-.11A.59.59,0,0,0,1,23.4a.41.41,0,0,0,0-.19.5.5,0,0,0-.14-.35A.51.51,0,0,0,.15,22.86Z"/>

</svg>
