<svg xmlns="http://www.w3.org/2000/svg" viewBox="0 0 27.16 25.68" fill="white">

  <path d="M18.47,19.5a4.62,4.62,0,0,0,.34-1.75,3.69,3.69,0,0,0,0-.58l8.39,2.13-.49-1c-1.57-3.11-3.86-3.74-5.51-3.73a5.14,5.14,0,0,0-1.58-8.07c2.4-1.78,2.88-5.17,2.9-5.33l.07-.57H22a10.63,10.63,0,0,0-9.64,5.45,4.24,4.24,0,0,0-1.14-.15A4.51,4.51,0,0,0,6.79,9.59l-3.46-2-.51.86,3.7,2.16c-3.79-.13-4.67,2.75-4.68,2.78l-.12.45.44.16a4.69,4.69,0,0,0,1.56.26,8.34,8.34,0,0,0,3.89-1.16,4.52,4.52,0,0,0,2.78,1.74,4.65,4.65,0,0,0-1,2.49A11.73,11.73,0,0,0,.23,24.83L0,25.45l.67.05h.56c1.68,0,6.66-.33,10-4a4.64,4.64,0,0,0,2.82,1A4.76,4.76,0,0,0,18,20.39a5.56,5.56,0,0,1,2.78,4.14l1-.15A6.5,6.5,0,0,0,18.47,19.5Zm6.71-1.74-6.46-1.64a4.45,4.45,0,0,0,.77-.28h0A4.77,4.77,0,0,1,25.18,17.76Zm-3.7-6.61a4.21,4.21,0,0,1-3.39,4.12h0a4.26,4.26,0,0,1-.8.08c-.14,0-.27,0-.41,0h0A4.2,4.2,0,0,1,14.25,14c-.07-.07-.12-.15-.18-.22a4.25,4.25,0,0,1-.53-.82,4,4,0,0,1,.56-4.53h0a3.87,3.87,0,0,1,.72-.68,4.18,4.18,0,0,1,6.66,3.37ZM18.37,6.07A5.49,5.49,0,0,0,17.29,6c-.15,0-.28,0-.43,0l4.27-3.52A6.11,6.11,0,0,1,18.37,6.07Zm2.1-4.35L14.09,7a4.74,4.74,0,0,0-.82-.56A9.38,9.38,0,0,1,20.47,1.72ZM3,13.18c.39-.67,1.44-1.77,3.87-1.55a4.1,4.1,0,0,0,.2.59A6.76,6.76,0,0,1,3,13.18Zm4.68-2.77a3.49,3.49,0,0,1,5.71-2.69,5.13,5.13,0,0,0-1.33,3.43,5.2,5.2,0,0,0,.61,2.39,3.34,3.34,0,0,1-1.3.34h0l-.2,0A3.49,3.49,0,0,1,7.71,10.41Zm1.69,7.9a5.69,5.69,0,0,0,.18.84L1.81,23.76A10.62,10.62,0,0,1,9.4,18.31ZM2.64,24.43,10,20.07a4.29,4.29,0,0,0,.55.77A12.53,12.53,0,0,1,2.64,24.43Zm11.44-2.95a3.72,3.72,0,0,1-2.33-6.63,4.53,4.53,0,0,0,1.5-.47,5.16,5.16,0,0,0,4,2,1.81,1.81,0,0,0,.23,0,3.72,3.72,0,0,1-3.44,5.16Z"/><path class="a" d="M15.63,8.15a.47.47,0,0,0-.15.35.41.41,0,0,0,0,.19.39.39,0,0,0,.11.17.91.91,0,0,0,.16.11.62.62,0,0,0,.38,0l.17-.11a.59.59,0,0,0,.1-.17.41.41,0,0,0,0-.19.5.5,0,0,0-.14-.35A.51.51,0,0,0,15.63,8.15Z"/><path class="a" d="M23.78,5.72a.47.47,0,0,0-.15.35.41.41,0,0,0,0,.19.39.39,0,0,0,.11.17.91.91,0,0,0,.16.11.62.62,0,0,0,.38,0l.17-.11a.59.59,0,0,0,.1-.17.41.41,0,0,0,0-.19.5.5,0,0,0-.14-.35A.51.51,0,0,0,23.78,5.72Z"/>

  <path d="M9.82,2.9a.47.47,0,0,0-.15.35.41.41,0,0,0,0,.19.39.39,0,0,0,.11.17.91.91,0,0,0,.16.11.62.62,0,0,0,.38,0l.17-.11a.59.59,0,0,0,.1-.17.41.41,0,0,0,0-.19.5.5,0,0,0-.14-.35A.51.51,0,0,0,9.82,2.9Z"/>

  <path d="M3.68,16.28a.43.43,0,0,0-.13.3.29.29,0,0,0,0,.16.34.34,0,0,0,.09.15l.14.09A.41.41,0,0,0,4,17a.41.41,0,0,0,.16,0l.14-.09a.6.6,0,0,0,.09-.15.29.29,0,0,0,0-.16.42.42,0,0,0-.12-.3A.43.43,0,0,0,3.68,16.28Z"/>

  <path d="M2.56,2.35a.36.36,0,0,0-.11.25.35.35,0,0,0,0,.13.28.28,0,0,0,.08.11l.11.08.13,0,.13,0,.12-.08.07-.11a.32.32,0,0,0,0-.13.38.38,0,0,0-.09-.25A.36.36,0,0,0,2.56,2.35Z"/>

  <path d="M25.45,13a.42.42,0,0,0-.12.3.29.29,0,0,0,0,.16.38.38,0,0,0,.09.15.67.67,0,0,0,.14.09.44.44,0,0,0,.32,0,1.19,1.19,0,0,0,.15-.09.71.71,0,0,0,.08-.15.29.29,0,0,0,0-.16.47.47,0,0,0-.12-.3A.45.45,0,0,0,25.45,13Z"/>

  <path d="M24.78,1.1a.31.31,0,0,0-.1.24.27.27,0,0,0,0,.13.32.32,0,0,0,.08.12l.11.07a.43.43,0,0,0,.26,0l.12-.07.07-.12a.27.27,0,0,0,0-.13.34.34,0,0,0-.09-.24A.36.36,0,0,0,24.78,1.1Z"/>

  <path d="M9.86,8a.51.51,0,0,0-.55.11.5.5,0,0,0-.14.35.52.52,0,0,0,.14.36L9.48,9a.62.62,0,0,0,.38,0A.91.91,0,0,0,10,8.86a.49.49,0,0,0,.15-.36A.51.51,0,0,0,10,8.15.46.46,0,0,0,9.86,8Z"/>

  <path d="M12.11,15.39a.5.5,0,0,0-.38,0,.36.36,0,0,0-.16.11.5.5,0,1,0,.85.35.51.51,0,0,0-.15-.35A.36.36,0,0,0,12.11,15.39Z"/>

  <path d="M12.78.1a.31.31,0,0,0-.1.24.27.27,0,0,0,0,.13.32.32,0,0,0,.08.12l.11.07a.43.43,0,0,0,.26,0l.12-.07.07-.12a.27.27,0,0,0,0-.13A.34.34,0,0,0,13.27.1.36.36,0,0,0,12.78.1Z"/>

  <path d="M12.78,25.1a.31.31,0,0,0-.1.24.27.27,0,0,0,0,.13.32.32,0,0,0,.08.12l.11.07a.43.43,0,0,0,.26,0l.12-.07.07-.12a.27.27,0,0,0,0-.13.34.34,0,0,0-.09-.24A.36.36,0,0,0,12.78,25.1Z"/>

  <path d="M24.92,21.22a.29.29,0,0,0-.09.21.27.27,0,0,0,.09.21l.09.07.12,0,.11,0,.1-.07a.33.33,0,0,0,.06-.1.2.2,0,0,0,0-.11.32.32,0,0,0-.08-.21A.31.31,0,0,0,24.92,21.22Z"/>

</svg>
