<svg xmlns="http://www.w3.org/2000/svg" viewBox="0 0 17.28 17.28" fill="white">

  <path d="M5,5.07a2.2,2.2,0,0,0,.25.17.79.79,0,0,0,.38.09,1.48,1.48,0,0,1,.84.24,2,2,0,0,1,.67.67,2.93,2.93,0,0,1,.19.4A2.37,2.37,0,0,1,7.42,7a1.37,1.37,0,0,1,.49.52c0,.07.11.13.17.2L9.73,6.06a2.16,2.16,0,0,0-1.24-.13,1.55,1.55,0,0,1,1.43-.06l.24-.24a2.26,2.26,0,0,0-1.11-.24,1.27,1.27,0,0,1-1.19-.56,2,2,0,0,0-.64-.54,1.7,1.7,0,0,0-1.69,0,1,1,0,0,1-.85.07,1.2,1.2,0,0,0-1.35.28,1.31,1.31,0,0,1,.73-.13A.75.75,0,0,1,5,5.07Zm2.09-.54a1.33,1.33,0,0,1,.77,1.14,1.89,1.89,0,0,0-.87-1,1.86,1.86,0,0,0-1.28-.2A1.36,1.36,0,0,1,7.09,4.53Z"/>

  <path d="M4.71,6a1.73,1.73,0,0,0,.14,1.69,2,2,0,0,0,.57.61,1.24,1.24,0,0,1,.63,1.15,1.47,1.47,0,0,0,0,.29L7.42,8.37l-.07,0a.18.18,0,0,1,.1,0L7.83,8a1.27,1.27,0,0,1-.47-.9,2,2,0,0,0-.28-.79A1.71,1.71,0,0,0,5.64,5.4,1.05,1.05,0,0,1,4.87,5a1.21,1.21,0,0,0-1.59-.32L3.47,5C4.26,4.46,5.12,5.21,4.71,6Zm2.14.46a1.34,1.34,0,0,1,.09,1.37,1.91,1.91,0,0,0-.28-1.26,1.85,1.85,0,0,0-1-.81A1.35,1.35,0,0,1,6.85,6.42Z"/>

  <path d="M8.64,0a8.64,8.64,0,1,0,8.64,8.64A8.64,8.64,0,0,0,8.64,0ZM2.37,12.43a1.19,1.19,0,0,1-.09-.15,3.72,3.72,0,0,1-.21-.39,2,2,0,0,1-.1-.21c-.06-.13-.11-.25-.16-.38a2,2,0,0,1-.1-.26c0-.12-.08-.24-.11-.36l-.09-.32c0-.11-.05-.22-.07-.33s-.05-.29-.07-.43l0-.25c0-.23,0-.47,0-.71s0-.49,0-.72a3.4,3.4,0,0,1,.07-.46l0-.23a6,6,0,0,1,.15-.61.09.09,0,0,0,0,0,7.35,7.35,0,0,1,5.48-5.1h0c.24-.05.49-.09.74-.12h0a6.66,6.66,0,0,1,.78-.05c.23,0,.47,0,.69,0l.36,0a1.92,1.92,0,0,1,.32.05l.39.08.26.07.41.13.21.08A3.79,3.79,0,0,1,11.7,2l.16.07.43.23.1.06a7.1,7.1,0,0,1,.94.69L3,13.32a5.2,5.2,0,0,1-.38-.44l0,0C2.54,12.71,2.45,12.57,2.37,12.43ZM11,7.27s0,0,0,0h0A.43.43,0,0,1,11,7.27ZM8.83,10.75a2.16,2.16,0,0,0-.18-1.2l.18-.18A1.49,1.49,0,0,1,8.83,10.75ZM10,15.85A7.56,7.56,0,0,1,8.64,16H8.21a7.37,7.37,0,0,1-2.69-.69l-.1,0c-.25-.13-.5-.26-.73-.41l0,0A5.46,5.46,0,0,1,4,14.24l3-3a1.69,1.69,0,0,0,.36.23,1.27,1.27,0,0,1,.75,1.09,1.88,1.88,0,0,0,.26.69A1.7,1.7,0,0,0,9.48,14c.78.14,1,.65,1.29.75.06-.33-.31-.73-.08-1.49a1.68,1.68,0,0,0-.22-1.37,2.14,2.14,0,0,0-.49-.54,1.26,1.26,0,0,1-.64-1.16,2.11,2.11,0,0,0-.28-1.09L9.6,8.6a1.44,1.44,0,0,0,.46,0,1.28,1.28,0,0,1,1.2.57,2,2,0,0,0,.57.46,1.75,1.75,0,0,0,1.38.14c.74-.28,1.16.07,1.49,0-.12-.32-.64-.47-.82-1.25A1.75,1.75,0,0,0,13,7.46a2.1,2.1,0,0,0-.7-.22,1.32,1.32,0,0,1-.94-.4L14.25,4a6.91,6.91,0,0,1,.71,1L15,5a4,4,0,0,1,.24.46.83.83,0,0,1,.07.13,4.07,4.07,0,0,1,.18.44,1.59,1.59,0,0,1,.07.2,4.13,4.13,0,0,1,.14.42l.06.25a2.74,2.74,0,0,1,.09.39c0,.11,0,.22.06.33s0,.23,0,.34,0,.46,0,.7h0s0,.07,0,.11A7.34,7.34,0,0,1,10,15.85Zm.07-3.68a1.74,1.74,0,0,0-.94-.77,1.28,1.28,0,0,1,1.12.66,1.26,1.26,0,0,1,.09,1.3A1.77,1.77,0,0,0,10.07,12.17Zm1.5-4.49a1.28,1.28,0,0,1,1.31,0,1.24,1.24,0,0,1,.72,1.08,1.77,1.77,0,0,0-.82-.9A1.82,1.82,0,0,0,11.57,7.68Z"/>

</svg>
