<svg xmlns="http://www.w3.org/2000/svg" viewBox="0 0 17.28 17.28" fill="white">

  <path d="M3.82,8.23c.63.09,2.24-.11,1.71,1.13-.29.68-1.27.81-1.74,1.32A.72.72,0,0,0,4,11.83l5.9-5.9a.68.68,0,0,1-.79,0C8.79,5.7,8.91,5,9,4.71c.15-.89.59-1.82.11-2.69a.65.65,0,0,0-.61-.29,1.26,1.26,0,0,0-.93.4A2.26,2.26,0,0,0,7.35,4a6.48,6.48,0,0,1,.32,2.2,1,1,0,0,1-1.32.9c-.55-.12-.92-.63-1.33-1a1.27,1.27,0,0,0-1.16-.26C2.67,6.12,2.45,8,3.82,8.23Zm4-5.49a.67.67,0,0,1,.06-.15.54.54,0,0,1,.47-.3.35.35,0,0,1,.26.07.26.26,0,0,1,.07.11.57.57,0,0,1,0,.12.62.62,0,0,0-.8.12.7.7,0,0,0-.11.21s0,.07,0,.09h0C7.75,2.93,7.78,2.83,7.8,2.74ZM6.53,7.6h.06a.29.29,0,0,1,.16,0,.5.5,0,0,0,.17,0,1,1,0,0,0,.24,0,1.22,1.22,0,0,0,.74-.48,1.16,1.16,0,0,0,.16-.4.78.78,0,0,0,0-.14s0-.07,0-.1,0,.12,0,.16a.68.68,0,0,1,0,.2,1.36,1.36,0,0,1-.22.51,1.09,1.09,0,0,1-.44.29A.7.7,0,0,1,7,7.74a.78.78,0,0,1-.21,0,2.26,2.26,0,0,1-.37-.11S6.49,7.6,6.53,7.6ZM4,6.19a1.25,1.25,0,0,1,.85.3,3.2,3.2,0,0,1,.5.47c.13.16.24.39.45.46a1.88,1.88,0,0,1-.59-.28C5.13,7.06,5,7,4.9,6.88a1,1,0,0,0-1.08-.06.86.86,0,0,0-.29.47A.42.42,0,0,1,3.39,7a.83.83,0,0,1,0-.27A.73.73,0,0,1,4,6.19Z"/>

  <path d="M8.64,0a8.64,8.64,0,1,0,8.64,8.64A8.64,8.64,0,0,0,8.64,0ZM2.37,12.43a1.19,1.19,0,0,1-.09-.15,3.72,3.72,0,0,1-.21-.39,2,2,0,0,1-.1-.21c-.06-.13-.11-.25-.16-.38a2,2,0,0,1-.1-.26c0-.12-.08-.24-.11-.36l-.09-.32c0-.11-.05-.22-.07-.33s-.05-.29-.07-.43l0-.25c0-.23,0-.47,0-.71s0-.49,0-.72a3.4,3.4,0,0,1,.07-.46l0-.23a6,6,0,0,1,.15-.61.09.09,0,0,0,0,0,7.35,7.35,0,0,1,5.48-5.1h0c.24-.05.49-.09.74-.12h0a6.66,6.66,0,0,1,.78-.05c.23,0,.47,0,.69,0l.36,0a1.92,1.92,0,0,1,.32.05l.39.08.26.07.41.13.21.08A3.79,3.79,0,0,1,11.7,2l.16.07.43.23.1.06a7.1,7.1,0,0,1,.94.69L3,13.32a5.2,5.2,0,0,1-.38-.44l0,0C2.54,12.71,2.45,12.57,2.37,12.43ZM11,9.79s0,0-.06-.08a.64.64,0,0,1-.06-.18,1.13,1.13,0,0,1,0-.41.76.76,0,0,1,.52-.62h.12a.74.74,0,0,0-.36.27,1,1,0,0,0-.17.33,1,1,0,0,0-.05.37A.88.88,0,0,0,11,9.79Zm-.17,2.46a.35.35,0,0,0,.05.13.47.47,0,0,1,0,.1s0,.08,0,.11a.41.41,0,0,1,0,.11.27.27,0,0,1-.29.28s.08-.05.11-.09a.26.26,0,0,0,.05-.17.83.83,0,0,0,0-.27A1.2,1.2,0,0,0,10.83,12.25Zm-1.34-.57a.83.83,0,0,0-.29-.16.85.85,0,0,0-.22,0,.91.91,0,0,0-.36.09,1.24,1.24,0,0,0-.34.18l-.21.2A1.25,1.25,0,0,1,9,11.34a.48.48,0,0,1,.35.1C9.39,11.49,9.51,11.57,9.49,11.68ZM7.61,13.75a2.91,2.91,0,0,1,0,.31,1.58,1.58,0,0,1-.12.52.57.57,0,0,1-1.12-.21,1.25,1.25,0,0,1,0-.19c0-.09.06-.22.14-.26a2.5,2.5,0,0,0,.07.26c0,.1.11.12.21.16.4.15.62-.31.75-.6a1.17,1.17,0,0,1,.06-.2A.75.75,0,0,1,7.61,13.75ZM10,15.85A7.56,7.56,0,0,1,8.64,16H8.21a7.37,7.37,0,0,1-2.69-.69l-.1,0c-.25-.13-.5-.26-.73-.41l0,0A5.46,5.46,0,0,1,4,14.24l3.12-3.12a2.8,2.8,0,0,1-.51,1.53c-.37.72-.82,1.31-.5,2.15a1,1,0,0,0,1.16.73c.61-.14.78-.86.85-1.4S8,12.9,8.44,12.36c.24-.29.7-.54,1-.27s.28.74.4,1.07c.38,1,2,.42,1.69-.67-.11-.31-1.27-1.56-.46-1.85.45-.16.88.6,1.32.5.21-.05.56-.27.42-.56s-.49-.29-.83-.39l-.08,0-.07,0-.12-.05L11.66,10,11.58,10a.71.71,0,0,1-.11-.17.88.88,0,0,1-.05-.15s0-.05,0-.07,0-.06,0-.09V9.41a.73.73,0,0,1,.68-.65,2.83,2.83,0,0,1,.42-.06,3.71,3.71,0,0,0,1.41-.14,1.45,1.45,0,0,0,.56-.42,1.58,1.58,0,0,0,.11-1.9c-.52-.74-1.75,0-2.22.4-.19.19-.74.85-1.07.46a.33.33,0,0,1,0-.14l3-3a6.91,6.91,0,0,1,.71,1L15,5a4,4,0,0,1,.24.46.83.83,0,0,1,.07.13,4.07,4.07,0,0,1,.18.44,1.59,1.59,0,0,1,.07.2,4.13,4.13,0,0,1,.14.42l.06.25a2.74,2.74,0,0,1,.09.39c0,.11,0,.22.06.33s0,.23,0,.34,0,.46,0,.7h0s0,.07,0,.11A7.34,7.34,0,0,1,10,15.85Zm3.71-9.16a.81.81,0,0,0-.39-.11h-.09a1.18,1.18,0,0,1,.55-.24.7.7,0,0,1,.47.11.43.43,0,0,1,.15.28.63.63,0,0,1,0,.19.65.65,0,0,1,0,.28,1.48,1.48,0,0,1-.29.52,2,2,0,0,1-.84.41.59.59,0,0,1-.17,0c.06,0,.19-.13.23-.17a1.51,1.51,0,0,0,.21-.23,1.08,1.08,0,0,0,.25-.53C13.82,7.07,13.84,6.8,13.71,6.69Z"/>

</svg>
